HIERARCHY
ROOT joint_Root
{
	OFFSET 0.0 0.0 0.0
	CHANNELS 6 Xposition Yposition Zposition Zrotation Xrotation Yrotation 
	JOINT Hips
	{
		OFFSET -0.726466 93.3139 -2.00062
		CHANNELS 6 Xposition Yposition Zposition Zrotation Xrotation Yrotation 
		JOINT Spine
		{
			OFFSET 15.7357 0.0 0.0
			CHANNELS 6 Xposition Yposition Zposition Zrotation Xrotation Yrotation 
			JOINT Chest
			{
				OFFSET 8.98455 -0.406207 0.0
				CHANNELS 6 Xposition Yposition Zposition Zrotation Xrotation Yrotation 
				JOINT Neck
				{
					OFFSET 16.3773 0.0 0.0
					CHANNELS 6 Xposition Yposition Zposition Zrotation Xrotation Yrotation 
					JOINT Head
					{
						OFFSET 6.45672 0.0 0.0
						CHANNELS 6 Xposition Yposition Zposition Zrotation Xrotation Yrotation 
						End Site
						{
							OFFSET 0.0 0.0 0.0
						}
					}
				}
				JOINT Shoulder_L
				{
					OFFSET 12.9942 -0.242716 4.98039
					CHANNELS 6 Xposition Yposition Zposition Zrotation Xrotation Yrotation 
					JOINT UpperArm_L
					{
						OFFSET 5.34809 0.0 0.0
						CHANNELS 6 Xposition Yposition Zposition Zrotation Xrotation Yrotation 
						JOINT LowerArm_L
						{
							OFFSET 24.3286 1.87007e-05 0.0
							CHANNELS 6 Xposition Yposition Zposition Zrotation Xrotation Yrotation 
							JOINT Hand_L
							{
								OFFSET 22.2916 0.0 0.0
								CHANNELS 6 Xposition Yposition Zposition Zrotation Xrotation Yrotation 
								End Site
								{
									OFFSET 0.0 0.0 0.0
								}
							}
						}
					}
				}
				JOINT Shoulder_R
				{
					OFFSET 12.9945 -0.242716 -4.98039
					CHANNELS 6 Xposition Yposition Zposition Zrotation Xrotation Yrotation 
					JOINT UpperArm_R
					{
						OFFSET -5.34813 0.0 0.0
						CHANNELS 6 Xposition Yposition Zposition Zrotation Xrotation Yrotation 
						JOINT LowerArm_R
						{
							OFFSET -24.3289 0.000322201 0.0
							CHANNELS 6 Xposition Yposition Zposition Zrotation Xrotation Yrotation 
							JOINT Hand_R
							{
								OFFSET -22.2915 -0.000108084 0.0
								CHANNELS 6 Xposition Yposition Zposition Zrotation Xrotation Yrotation 
								End Site
								{
									OFFSET 0.0 0.0 0.0
								}
							}
						}
					}
				}
			}
		}
		JOINT UpperLeg_L
		{
			OFFSET -2.19248 -6.46944 0.0
			CHANNELS 6 Xposition Yposition Zposition Zrotation Xrotation Yrotation 
			JOINT LowerLeg_L
			{
				OFFSET 39.0811 0.0 -1.23785e-05
				CHANNELS 6 Xposition Yposition Zposition Zrotation Xrotation Yrotation 
				JOINT Foot_L
				{
					OFFSET 40.9854 0.0 -1.26872e-05
					CHANNELS 6 Xposition Yposition Zposition Zrotation Xrotation Yrotation 
					JOINT Toes_L
					{
						OFFSET 11.7543 0.0 0.0
						CHANNELS 6 Xposition Yposition Zposition Zrotation Xrotation Yrotation 
						End Site
						{
							OFFSET 0.0 0.0 0.0
						}
					}
				}
			}
		}
		JOINT UpperLeg_R
		{
			OFFSET -2.19251 6.46944 0.0
			CHANNELS 6 Xposition Yposition Zposition Zrotation Xrotation Yrotation 
			JOINT LowerLeg_R
			{
				OFFSET -39.0811 -0.00228153 -0.0401928
				CHANNELS 6 Xposition Yposition Zposition Zrotation Xrotation Yrotation 
				JOINT Foot_R
				{
					OFFSET -40.9854 0.0 0.0
					CHANNELS 6 Xposition Yposition Zposition Zrotation Xrotation Yrotation 
					JOINT Toes_R
					{
						OFFSET -11.7543 0.0 0.0
						CHANNELS 6 Xposition Yposition Zposition Zrotation Xrotation Yrotation 
						End Site
						{
							OFFSET 0.0 0.0 0.0
						}
					}
				}
			}
		}
	}
}
MOTION
Frames:	4
Frame Time:	0.0333333
0.000000 0.000000 0.000000 0.000000 0.000000 -0.000000 -1.108520 92.226200 -0.672487 87.751500 -0.050851 2.601150 15.735700 0.000005 -0.000001 77.280200 87.816500 -76.740300 8.984550 -0.406207 -0.000000 -3.501420 -1.014100 1.049060 16.377300 -0.000001 -0.000001 -4.320410 -2.230570 0.822201 6.456720 -0.000001 -0.000000 -4.551890 -2.173290 0.631999 12.994200 -0.242716 4.980390 -84.363100 -11.747600 -64.136700 5.348090 -0.000007 -0.000001 -68.337200 -54.270900 -100.616000 24.328600 0.000019 0.000005 0.043816 0.031017 -54.682800 22.291600 -0.000001 0.000005 20.496800 5.617380 -12.441800 12.994500 -0.242716 -4.980390 93.019200 -6.930660 -66.389700 -5.348130 -0.000001 -0.000004 -60.049600 -53.520000 -108.756000 -24.328900 0.000322 -0.000009 -1.248340 -1.633700 -37.367600 -22.291500 -0.000108 -0.000004 22.416400 5.551250 -8.765300 -2.192480 -6.469440 -0.000000 -168.980000 -17.270400 -3.103180 39.081100 -0.000007 -0.000012 -0.156054 0.418167 20.465000 40.985400 -0.000006 -0.000013 -7.174900 -1.700030 -62.573800 11.754300 -0.000000 0.000003 -0.000101 -0.001038 -16.617400 -2.192510 6.469440 -0.000001 175.104000 22.373000 178.952000 -39.081100 -0.002282 -0.040193 0.038948 -0.103279 19.031300 -40.985400 0.000008 0.000006 -0.905245 -0.381713 -63.261800 -11.754300 -0.000006 -0.000006 -0.003437 -0.045455 -18.421900
0.000000 0.000000 0.000000 0.000000 0.000000 -0.000000 -1.073340 92.220900 -0.681049 87.777900 -0.072275 2.646670 15.735700 0.000005 -0.000001 77.833000 87.793500 -77.289100 8.984550 -0.406207 -0.000000 -3.447550 -0.982797 1.058490 16.377300 -0.000001 -0.000001 -4.255040 -2.206660 0.817267 6.456720 -0.000001 -0.000000 -4.502300 -2.172150 0.585639 12.994200 -0.242716 4.980390 -84.364400 -11.730400 -64.109400 5.348090 -0.000007 -0.000001 -68.410900 -54.265500 -100.617000 24.328600 0.000019 0.000005 0.072542 0.051429 -54.652300 22.291600 -0.000001 0.000005 20.556200 5.616710 -12.396100 12.994500 -0.242716 -4.980390 93.034700 -6.938020 -66.304300 -5.348130 -0.000001 -0.000004 -60.109500 -53.586400 -108.791000 -24.328900 0.000322 -0.000009 -1.278440 -1.676110 -37.318800 -22.291500 -0.000108 -0.000004 22.384200 5.551900 -8.796190 -2.192480 -6.469440 -0.000000 -169.014000 -17.326300 -3.087310 39.081100 -0.000007 -0.000012 -0.156963 0.419282 20.524200 40.985400 -0.000006 -0.000013 -7.146610 -1.689490 -62.599900 11.754300 -0.000000 0.000003 -0.000100 -0.001027 -16.617000 -2.192510 6.469440 -0.000001 175.029000 22.331000 178.969000 -39.081100 -0.002282 -0.040193 0.039118 -0.103485 19.080300 -40.985400 0.000008 0.000006 -0.924353 -0.348889 -63.271800 -11.754300 -0.000006 -0.000006 -0.003720 -0.048496 -18.545700
0.000000 0.000000 0.000000 0.000000 0.000000 -0.000000 -1.043540 92.230800 -0.685542 87.813900 -0.083969 2.670100 15.735700 0.000005 -0.000001 78.056300 87.788000 -77.520800 8.984550 -0.406207 -0.000000 -3.433260 -0.967393 1.042380 16.377300 -0.000001 -0.000001 -4.158090 -2.189520 0.816399 6.456720 -0.000001 -0.000000 -4.441610 -2.155480 0.601326 12.994200 -0.242716 4.980390 -84.368700 -11.709600 -64.087700 5.348090 -0.000007 -0.000001 -68.535500 -54.231300 -100.695000 24.328600 0.000019 0.000005 0.045657 0.032426 -54.594000 22.291600 -0.000001 0.000005 20.358700 5.616950 -12.412900 12.994500 -0.242716 -4.980390 93.027700 -6.916750 -66.288300 -5.348130 -0.000001 -0.000004 -60.000000 -53.695400 -108.688000 -24.328900 0.000322 -0.000009 -1.184300 -1.557490 -37.230700 -22.291500 -0.000108 -0.000004 22.303300 5.551060 -8.756610 -2.192480 -6.469440 -0.000000 -169.066000 -17.295300 -3.016000 39.081100 -0.000007 -0.000012 -0.155278 0.416753 20.435000 40.985400 -0.000006 -0.000013 -7.133030 -1.726120 -62.568300 11.754300 -0.000000 0.000003 -0.000090 -0.000941 -16.613700 -2.192510 6.469440 -0.000001 174.969000 22.378400 179.013000 -39.081100 -0.002282 -0.040193 0.040017 -0.106348 19.036200 -40.985400 0.000008 0.000006 -0.892872 -0.326587 -63.239000 -11.754300 -0.000006 -0.000006 -0.003495 -0.046077 -18.447200
0.000000 0.000000 0.000000 0.000000 0.000000 -0.000000 -1.026570 92.222700 -0.679992 87.802800 -0.103311 2.690490 15.735700 0.000005 -0.000001 78.226500 87.784300 -77.684900 8.984550 -0.406207 -0.000000 -3.423340 -0.956607 1.054920 16.377300 -0.000001 -0.000001 -4.070800 -2.172400 0.824847 6.456720 -0.000001 -0.000000 -4.436090 -2.168260 0.622816 12.994200 -0.242716 4.980390 -84.361400 -11.702900 -64.045200 5.348090 -0.000007 -0.000001 -68.576200 -54.191300 -100.680000 24.328600 0.000019 0.000005 0.092658 0.065901 -54.568200 22.291600 -0.000001 0.000005 20.467700 5.615470 -12.314200 12.994500 -0.242716 -4.980390 93.027700 -6.898250 -66.232400 -5.348130 -0.000001 -0.000004 -59.921400 -53.729600 -108.659000 -24.328900 0.000322 -0.000009 -1.174100 -1.552580 -37.078600 -22.291500 -0.000108 -0.000004 22.426300 5.549130 -8.665250 -2.192480 -6.469440 -0.000000 -169.057000 -17.313700 -3.033640 39.081100 -0.000007 -0.000012 -0.158169 0.422532 20.522900 40.985400 -0.000006 -0.000013 -7.125210 -1.732290 -62.617000 11.754300 -0.000000 0.000003 -0.000096 -0.000993 -16.615700 -2.192510 6.469440 -0.000001 174.952000 22.328500 179.026000 -39.081100 -0.002282 -0.040193 0.038866 -0.102848 19.064500 -40.985400 0.000008 0.000006 -0.930604 -0.323081 -63.253500 -11.754300 -0.000006 -0.000006 -0.003629 -0.047527 -18.506200
